<mxfile host="app.diagrams.net" modified="2023-08-29T14:59:32.216Z" agent="Mozilla/5.0 (Windows NT 10.0; Win64; x64) AppleWebKit/537.36 (KHTML, like Gecko) Chrome/116.0.0.0 Safari/537.36" etag="eIHbXhJ35yCTrBEEPsZk" version="21.6.9" type="device">
  <diagram name="PÃ¡gina-1" id="wc61vp_JwqqGYZokXLDb">
    <mxGraphModel dx="1434" dy="758" grid="1" gridSize="10" guides="1" tooltips="1" connect="1" arrows="1" fold="1" page="1" pageScale="1" pageWidth="827" pageHeight="1169" math="0" shadow="0">
      <root>
        <mxCell id="0" />
        <mxCell id="1" parent="0" />
        <mxCell id="bLIzntAKtlwtZBH2AByW-1" value="Order a car Activity Diagram" style="text;strokeColor=none;fillColor=none;html=1;fontSize=24;fontStyle=1;verticalAlign=middle;align=center;" vertex="1" parent="1">
          <mxGeometry x="870" y="30" width="100" height="40" as="geometry" />
        </mxCell>
        <mxCell id="bLIzntAKtlwtZBH2AByW-2" value="Project: Uber ride sharing system" style="text;align=center;fontStyle=1;verticalAlign=middle;spacingLeft=3;spacingRight=3;strokeColor=none;rotatable=0;points=[[0,0.5],[1,0.5]];portConstraint=eastwest;html=1;" vertex="1" parent="1">
          <mxGeometry x="820" y="60" width="80" height="26" as="geometry" />
        </mxCell>
        <mxCell id="bLIzntAKtlwtZBH2AByW-3" value="" style="ellipse;html=1;shape=startState;fillColor=#000000;strokeColor=#000000;" vertex="1" parent="1">
          <mxGeometry x="70" y="210" width="30" height="30" as="geometry" />
        </mxCell>
        <mxCell id="bLIzntAKtlwtZBH2AByW-7" value="" style="endArrow=block;html=1;rounded=0;endFill=1;" edge="1" parent="1">
          <mxGeometry width="50" height="50" relative="1" as="geometry">
            <mxPoint x="90" y="224.5" as="sourcePoint" />
            <mxPoint x="170" y="224.5" as="targetPoint" />
          </mxGeometry>
        </mxCell>
        <mxCell id="bLIzntAKtlwtZBH2AByW-8" value="" style="rhombus;whiteSpace=wrap;html=1;" vertex="1" parent="1">
          <mxGeometry x="170" y="203" width="40" height="40" as="geometry" />
        </mxCell>
        <mxCell id="bLIzntAKtlwtZBH2AByW-9" value="" style="endArrow=block;html=1;rounded=0;endFill=1;" edge="1" parent="1">
          <mxGeometry width="50" height="50" relative="1" as="geometry">
            <mxPoint x="210" y="224.5" as="sourcePoint" />
            <mxPoint x="290" y="224.5" as="targetPoint" />
          </mxGeometry>
        </mxCell>
        <mxCell id="bLIzntAKtlwtZBH2AByW-10" value="Set departure" style="rounded=1;whiteSpace=wrap;html=1;" vertex="1" parent="1">
          <mxGeometry x="290" y="198" width="120" height="60" as="geometry" />
        </mxCell>
        <mxCell id="bLIzntAKtlwtZBH2AByW-11" value="" style="endArrow=block;html=1;rounded=0;endFill=1;" edge="1" parent="1">
          <mxGeometry width="50" height="50" relative="1" as="geometry">
            <mxPoint x="410" y="227.5" as="sourcePoint" />
            <mxPoint x="490" y="227.5" as="targetPoint" />
          </mxGeometry>
        </mxCell>
        <mxCell id="bLIzntAKtlwtZBH2AByW-12" value="Set destination" style="rounded=1;whiteSpace=wrap;html=1;" vertex="1" parent="1">
          <mxGeometry x="490" y="198" width="120" height="60" as="geometry" />
        </mxCell>
        <mxCell id="bLIzntAKtlwtZBH2AByW-15" value="" style="endArrow=block;html=1;rounded=0;endFill=1;" edge="1" parent="1">
          <mxGeometry width="50" height="50" relative="1" as="geometry">
            <mxPoint x="610" y="227.5" as="sourcePoint" />
            <mxPoint x="690" y="227.5" as="targetPoint" />
          </mxGeometry>
        </mxCell>
        <mxCell id="bLIzntAKtlwtZBH2AByW-16" value="" style="rhombus;whiteSpace=wrap;html=1;" vertex="1" parent="1">
          <mxGeometry x="690" y="208" width="40" height="40" as="geometry" />
        </mxCell>
        <mxCell id="bLIzntAKtlwtZBH2AByW-17" value="" style="endArrow=none;html=1;rounded=0;" edge="1" parent="1">
          <mxGeometry width="50" height="50" relative="1" as="geometry">
            <mxPoint x="730" y="227.5" as="sourcePoint" />
            <mxPoint x="800" y="227.5" as="targetPoint" />
          </mxGeometry>
        </mxCell>
        <mxCell id="bLIzntAKtlwtZBH2AByW-18" value="&lt;font style=&quot;font-size: 12px;&quot;&gt;Yes&lt;/font&gt;" style="edgeLabel;html=1;align=center;verticalAlign=middle;resizable=0;points=[];" vertex="1" connectable="0" parent="bLIzntAKtlwtZBH2AByW-17">
          <mxGeometry x="-0.0571" y="1" relative="1" as="geometry">
            <mxPoint y="1" as="offset" />
          </mxGeometry>
        </mxCell>
        <mxCell id="bLIzntAKtlwtZBH2AByW-19" value="" style="endArrow=block;html=1;rounded=0;endFill=1;" edge="1" parent="1">
          <mxGeometry width="50" height="50" relative="1" as="geometry">
            <mxPoint x="800" y="229" as="sourcePoint" />
            <mxPoint x="800" y="279" as="targetPoint" />
          </mxGeometry>
        </mxCell>
        <mxCell id="bLIzntAKtlwtZBH2AByW-20" value="Get trip details&lt;br&gt;" style="rounded=1;whiteSpace=wrap;html=1;" vertex="1" parent="1">
          <mxGeometry x="750" y="280" width="120" height="60" as="geometry" />
        </mxCell>
        <mxCell id="bLIzntAKtlwtZBH2AByW-21" value="" style="endArrow=block;html=1;rounded=0;endFill=1;" edge="1" parent="1">
          <mxGeometry width="50" height="50" relative="1" as="geometry">
            <mxPoint x="800" y="340" as="sourcePoint" />
            <mxPoint x="800" y="390" as="targetPoint" />
          </mxGeometry>
        </mxCell>
        <mxCell id="bLIzntAKtlwtZBH2AByW-22" value="" style="rhombus;whiteSpace=wrap;html=1;" vertex="1" parent="1">
          <mxGeometry x="780" y="390" width="40" height="40" as="geometry" />
        </mxCell>
        <mxCell id="bLIzntAKtlwtZBH2AByW-23" value="" style="endArrow=block;html=1;rounded=0;endFill=1;" edge="1" parent="1">
          <mxGeometry width="50" height="50" relative="1" as="geometry">
            <mxPoint x="799.5" y="430" as="sourcePoint" />
            <mxPoint x="799.5" y="480" as="targetPoint" />
          </mxGeometry>
        </mxCell>
        <mxCell id="bLIzntAKtlwtZBH2AByW-24" value="&lt;font style=&quot;font-size: 12px;&quot;&gt;Yes&lt;/font&gt;" style="edgeLabel;html=1;align=center;verticalAlign=middle;resizable=0;points=[];" vertex="1" connectable="0" parent="bLIzntAKtlwtZBH2AByW-23">
          <mxGeometry x="-0.12" y="2" relative="1" as="geometry">
            <mxPoint as="offset" />
          </mxGeometry>
        </mxCell>
        <mxCell id="bLIzntAKtlwtZBH2AByW-25" value="Take car" style="rounded=1;whiteSpace=wrap;html=1;" vertex="1" parent="1">
          <mxGeometry x="740" y="480" width="120" height="60" as="geometry" />
        </mxCell>
        <mxCell id="bLIzntAKtlwtZBH2AByW-26" value="" style="endArrow=block;html=1;rounded=0;endFill=1;" edge="1" parent="1">
          <mxGeometry width="50" height="50" relative="1" as="geometry">
            <mxPoint x="799.5" y="540" as="sourcePoint" />
            <mxPoint x="799.5" y="590" as="targetPoint" />
          </mxGeometry>
        </mxCell>
        <mxCell id="bLIzntAKtlwtZBH2AByW-27" value="" style="rhombus;whiteSpace=wrap;html=1;" vertex="1" parent="1">
          <mxGeometry x="780" y="590" width="40" height="40" as="geometry" />
        </mxCell>
        <mxCell id="bLIzntAKtlwtZBH2AByW-29" value="" style="endArrow=block;html=1;rounded=0;endFill=1;" edge="1" parent="1">
          <mxGeometry width="50" height="50" relative="1" as="geometry">
            <mxPoint x="799.5" y="630" as="sourcePoint" />
            <mxPoint x="800" y="710" as="targetPoint" />
          </mxGeometry>
        </mxCell>
        <mxCell id="bLIzntAKtlwtZBH2AByW-30" value="&lt;font style=&quot;font-size: 12px;&quot;&gt;No&lt;/font&gt;" style="edgeLabel;html=1;align=center;verticalAlign=middle;resizable=0;points=[];" vertex="1" connectable="0" parent="bLIzntAKtlwtZBH2AByW-29">
          <mxGeometry x="0.0252" y="1" relative="1" as="geometry">
            <mxPoint as="offset" />
          </mxGeometry>
        </mxCell>
        <mxCell id="bLIzntAKtlwtZBH2AByW-31" value="Agreed with trip proposed?" style="text;html=1;strokeColor=none;fillColor=none;align=center;verticalAlign=middle;whiteSpace=wrap;rounded=0;" vertex="1" parent="1">
          <mxGeometry x="690" y="395" width="90" height="30" as="geometry" />
        </mxCell>
        <mxCell id="bLIzntAKtlwtZBH2AByW-32" value="Shared trip details?" style="text;html=1;strokeColor=none;fillColor=none;align=center;verticalAlign=middle;whiteSpace=wrap;rounded=0;" vertex="1" parent="1">
          <mxGeometry x="670" y="600" width="110" height="30" as="geometry" />
        </mxCell>
        <mxCell id="bLIzntAKtlwtZBH2AByW-33" value="" style="rhombus;whiteSpace=wrap;html=1;" vertex="1" parent="1">
          <mxGeometry x="780" y="710" width="40" height="40" as="geometry" />
        </mxCell>
        <mxCell id="bLIzntAKtlwtZBH2AByW-34" value="" style="endArrow=block;html=1;rounded=0;endFill=1;" edge="1" parent="1">
          <mxGeometry width="50" height="50" relative="1" as="geometry">
            <mxPoint x="780" y="729.5" as="sourcePoint" />
            <mxPoint x="710" y="729.5" as="targetPoint" />
          </mxGeometry>
        </mxCell>
        <mxCell id="bLIzntAKtlwtZBH2AByW-35" value="" style="rhombus;whiteSpace=wrap;html=1;" vertex="1" parent="1">
          <mxGeometry x="670" y="710" width="40" height="40" as="geometry" />
        </mxCell>
        <mxCell id="bLIzntAKtlwtZBH2AByW-36" value="" style="endArrow=block;html=1;rounded=0;endFill=1;" edge="1" parent="1">
          <mxGeometry width="50" height="50" relative="1" as="geometry">
            <mxPoint x="670" y="729.5" as="sourcePoint" />
            <mxPoint x="530" y="730" as="targetPoint" />
          </mxGeometry>
        </mxCell>
        <mxCell id="bLIzntAKtlwtZBH2AByW-37" value="&lt;font style=&quot;font-size: 12px;&quot;&gt;No&lt;/font&gt;" style="edgeLabel;html=1;align=center;verticalAlign=middle;resizable=0;points=[];" vertex="1" connectable="0" parent="bLIzntAKtlwtZBH2AByW-36">
          <mxGeometry x="-0.0713" y="2" relative="1" as="geometry">
            <mxPoint as="offset" />
          </mxGeometry>
        </mxCell>
        <mxCell id="bLIzntAKtlwtZBH2AByW-38" value="" style="rhombus;whiteSpace=wrap;html=1;" vertex="1" parent="1">
          <mxGeometry x="490" y="710" width="40" height="40" as="geometry" />
        </mxCell>
        <mxCell id="bLIzntAKtlwtZBH2AByW-39" value="" style="endArrow=block;html=1;rounded=0;endFill=1;" edge="1" parent="1">
          <mxGeometry width="50" height="50" relative="1" as="geometry">
            <mxPoint x="490" y="729.5" as="sourcePoint" />
            <mxPoint x="420" y="729.5" as="targetPoint" />
          </mxGeometry>
        </mxCell>
        <mxCell id="bLIzntAKtlwtZBH2AByW-40" value="Approve payment" style="rounded=1;whiteSpace=wrap;html=1;" vertex="1" parent="1">
          <mxGeometry x="300" y="700" width="120" height="60" as="geometry" />
        </mxCell>
        <mxCell id="bLIzntAKtlwtZBH2AByW-41" value="" style="endArrow=block;html=1;rounded=0;endFill=1;" edge="1" parent="1">
          <mxGeometry width="50" height="50" relative="1" as="geometry">
            <mxPoint x="359.5" y="700" as="sourcePoint" />
            <mxPoint x="360" y="570" as="targetPoint" />
          </mxGeometry>
        </mxCell>
        <mxCell id="bLIzntAKtlwtZBH2AByW-42" value="" style="rhombus;whiteSpace=wrap;html=1;" vertex="1" parent="1">
          <mxGeometry x="340" y="530" width="40" height="40" as="geometry" />
        </mxCell>
        <mxCell id="bLIzntAKtlwtZBH2AByW-44" value="" style="endArrow=block;html=1;rounded=0;endFill=1;" edge="1" parent="1">
          <mxGeometry width="50" height="50" relative="1" as="geometry">
            <mxPoint x="710" y="250" as="sourcePoint" />
            <mxPoint x="710" y="300" as="targetPoint" />
          </mxGeometry>
        </mxCell>
        <mxCell id="bLIzntAKtlwtZBH2AByW-45" value="&lt;font style=&quot;font-size: 12px;&quot;&gt;No&lt;/font&gt;" style="edgeLabel;html=1;align=center;verticalAlign=middle;resizable=0;points=[];" vertex="1" connectable="0" parent="bLIzntAKtlwtZBH2AByW-44">
          <mxGeometry x="-0.08" y="1" relative="1" as="geometry">
            <mxPoint as="offset" />
          </mxGeometry>
        </mxCell>
        <mxCell id="bLIzntAKtlwtZBH2AByW-46" value="Error: Price couldn&#39;t be calculated" style="rounded=1;whiteSpace=wrap;html=1;" vertex="1" parent="1">
          <mxGeometry x="600" y="300" width="120" height="60" as="geometry" />
        </mxCell>
        <mxCell id="bLIzntAKtlwtZBH2AByW-47" value="" style="endArrow=none;html=1;rounded=0;" edge="1" parent="1">
          <mxGeometry width="50" height="50" relative="1" as="geometry">
            <mxPoint x="360" y="330" as="sourcePoint" />
            <mxPoint x="600" y="329.5" as="targetPoint" />
          </mxGeometry>
        </mxCell>
        <mxCell id="bLIzntAKtlwtZBH2AByW-48" value="" style="endArrow=block;html=1;rounded=0;endFill=1;" edge="1" parent="1">
          <mxGeometry width="50" height="50" relative="1" as="geometry">
            <mxPoint x="360" y="330" as="sourcePoint" />
            <mxPoint x="359.5" y="530" as="targetPoint" />
          </mxGeometry>
        </mxCell>
        <mxCell id="bLIzntAKtlwtZBH2AByW-49" value="" style="endArrow=block;html=1;rounded=0;endFill=1;" edge="1" parent="1" target="bLIzntAKtlwtZBH2AByW-50">
          <mxGeometry width="50" height="50" relative="1" as="geometry">
            <mxPoint x="340" y="549.5" as="sourcePoint" />
            <mxPoint x="230" y="550" as="targetPoint" />
          </mxGeometry>
        </mxCell>
        <mxCell id="bLIzntAKtlwtZBH2AByW-50" value="" style="ellipse;html=1;shape=endState;fillColor=#000000;strokeColor=#000000;" vertex="1" parent="1">
          <mxGeometry x="215" y="535" width="30" height="30" as="geometry" />
        </mxCell>
        <mxCell id="bLIzntAKtlwtZBH2AByW-51" value="" style="endArrow=none;html=1;rounded=0;" edge="1" parent="1">
          <mxGeometry width="50" height="50" relative="1" as="geometry">
            <mxPoint x="820" y="409.5" as="sourcePoint" />
            <mxPoint x="920" y="410" as="targetPoint" />
          </mxGeometry>
        </mxCell>
        <mxCell id="bLIzntAKtlwtZBH2AByW-52" value="&lt;font style=&quot;font-size: 12px;&quot;&gt;No&lt;/font&gt;" style="edgeLabel;html=1;align=center;verticalAlign=middle;resizable=0;points=[];" vertex="1" connectable="0" parent="bLIzntAKtlwtZBH2AByW-51">
          <mxGeometry x="-0.0201" y="1" relative="1" as="geometry">
            <mxPoint as="offset" />
          </mxGeometry>
        </mxCell>
        <mxCell id="bLIzntAKtlwtZBH2AByW-53" value="" style="endArrow=none;html=1;rounded=0;" edge="1" parent="1">
          <mxGeometry width="50" height="50" relative="1" as="geometry">
            <mxPoint x="920" y="410" as="sourcePoint" />
            <mxPoint x="920" y="140" as="targetPoint" />
          </mxGeometry>
        </mxCell>
        <mxCell id="bLIzntAKtlwtZBH2AByW-54" value="" style="endArrow=none;html=1;rounded=0;" edge="1" parent="1">
          <mxGeometry width="50" height="50" relative="1" as="geometry">
            <mxPoint x="190" y="140" as="sourcePoint" />
            <mxPoint x="920" y="140" as="targetPoint" />
          </mxGeometry>
        </mxCell>
        <mxCell id="bLIzntAKtlwtZBH2AByW-55" value="" style="endArrow=block;html=1;rounded=0;endFill=1;" edge="1" parent="1">
          <mxGeometry width="50" height="50" relative="1" as="geometry">
            <mxPoint x="190" y="140" as="sourcePoint" />
            <mxPoint x="189.5" y="203" as="targetPoint" />
          </mxGeometry>
        </mxCell>
        <mxCell id="bLIzntAKtlwtZBH2AByW-56" value="Is trip possible?" style="text;html=1;strokeColor=none;fillColor=none;align=center;verticalAlign=middle;whiteSpace=wrap;rounded=0;" vertex="1" parent="1">
          <mxGeometry x="670" y="173" width="90" height="30" as="geometry" />
        </mxCell>
        <mxCell id="bLIzntAKtlwtZBH2AByW-57" value="Share payment?" style="text;html=1;strokeColor=none;fillColor=none;align=center;verticalAlign=middle;whiteSpace=wrap;rounded=0;" vertex="1" parent="1">
          <mxGeometry x="630" y="680" width="110" height="30" as="geometry" />
        </mxCell>
        <mxCell id="bLIzntAKtlwtZBH2AByW-61" value="" style="endArrow=none;html=1;rounded=0;" edge="1" parent="1">
          <mxGeometry width="50" height="50" relative="1" as="geometry">
            <mxPoint x="820" y="609.5" as="sourcePoint" />
            <mxPoint x="900" y="609.5" as="targetPoint" />
          </mxGeometry>
        </mxCell>
        <mxCell id="bLIzntAKtlwtZBH2AByW-62" value="&lt;font style=&quot;font-size: 12px;&quot;&gt;Yes&lt;/font&gt;" style="edgeLabel;html=1;align=center;verticalAlign=middle;resizable=0;points=[];" vertex="1" connectable="0" parent="bLIzntAKtlwtZBH2AByW-61">
          <mxGeometry x="-0.075" y="1" relative="1" as="geometry">
            <mxPoint y="1" as="offset" />
          </mxGeometry>
        </mxCell>
        <mxCell id="bLIzntAKtlwtZBH2AByW-63" value="" style="endArrow=block;html=1;rounded=0;endFill=1;" edge="1" parent="1">
          <mxGeometry width="50" height="50" relative="1" as="geometry">
            <mxPoint x="900" y="610" as="sourcePoint" />
            <mxPoint x="900" y="660" as="targetPoint" />
          </mxGeometry>
        </mxCell>
        <mxCell id="bLIzntAKtlwtZBH2AByW-64" value="Send message to contact list" style="rounded=1;whiteSpace=wrap;html=1;" vertex="1" parent="1">
          <mxGeometry x="840" y="660" width="120" height="60" as="geometry" />
        </mxCell>
        <mxCell id="bLIzntAKtlwtZBH2AByW-65" value="" style="endArrow=none;html=1;rounded=0;" edge="1" parent="1">
          <mxGeometry width="50" height="50" relative="1" as="geometry">
            <mxPoint x="900" y="780" as="sourcePoint" />
            <mxPoint x="899.5" y="720" as="targetPoint" />
          </mxGeometry>
        </mxCell>
        <mxCell id="bLIzntAKtlwtZBH2AByW-66" value="" style="endArrow=none;html=1;rounded=0;" edge="1" parent="1">
          <mxGeometry width="50" height="50" relative="1" as="geometry">
            <mxPoint x="800" y="780" as="sourcePoint" />
            <mxPoint x="900" y="780" as="targetPoint" />
          </mxGeometry>
        </mxCell>
        <mxCell id="bLIzntAKtlwtZBH2AByW-67" value="" style="endArrow=block;html=1;rounded=0;endFill=1;" edge="1" parent="1">
          <mxGeometry width="50" height="50" relative="1" as="geometry">
            <mxPoint x="800" y="780" as="sourcePoint" />
            <mxPoint x="799.5" y="750" as="targetPoint" />
          </mxGeometry>
        </mxCell>
        <mxCell id="bLIzntAKtlwtZBH2AByW-68" value="" style="endArrow=none;html=1;rounded=0;" edge="1" parent="1">
          <mxGeometry width="50" height="50" relative="1" as="geometry">
            <mxPoint x="690" y="840" as="sourcePoint" />
            <mxPoint x="690" y="750" as="targetPoint" />
          </mxGeometry>
        </mxCell>
        <mxCell id="bLIzntAKtlwtZBH2AByW-69" value="&lt;font style=&quot;font-size: 12px;&quot;&gt;Yes&lt;/font&gt;" style="edgeLabel;html=1;align=center;verticalAlign=middle;resizable=0;points=[];" vertex="1" connectable="0" parent="bLIzntAKtlwtZBH2AByW-68">
          <mxGeometry x="-0.05" relative="1" as="geometry">
            <mxPoint as="offset" />
          </mxGeometry>
        </mxCell>
        <mxCell id="bLIzntAKtlwtZBH2AByW-71" value="" style="endArrow=block;html=1;rounded=0;endFill=1;" edge="1" parent="1">
          <mxGeometry width="50" height="50" relative="1" as="geometry">
            <mxPoint x="690" y="840" as="sourcePoint" />
            <mxPoint x="670" y="840" as="targetPoint" />
          </mxGeometry>
        </mxCell>
        <mxCell id="bLIzntAKtlwtZBH2AByW-72" value="Choose mate to share price" style="rounded=1;whiteSpace=wrap;html=1;" vertex="1" parent="1">
          <mxGeometry x="547" y="810" width="120" height="60" as="geometry" />
        </mxCell>
        <mxCell id="bLIzntAKtlwtZBH2AByW-73" value="" style="endArrow=none;html=1;rounded=0;" edge="1" parent="1">
          <mxGeometry width="50" height="50" relative="1" as="geometry">
            <mxPoint x="510" y="840" as="sourcePoint" />
            <mxPoint x="546" y="839.5" as="targetPoint" />
          </mxGeometry>
        </mxCell>
        <mxCell id="bLIzntAKtlwtZBH2AByW-74" value="" style="endArrow=block;html=1;rounded=0;endFill=1;" edge="1" parent="1">
          <mxGeometry width="50" height="50" relative="1" as="geometry">
            <mxPoint x="510" y="840" as="sourcePoint" />
            <mxPoint x="510" y="750" as="targetPoint" />
          </mxGeometry>
        </mxCell>
      </root>
    </mxGraphModel>
  </diagram>
</mxfile>
